<svg xmlns="http://www.w3.org/2000/svg"
     width="24"
     height="24"
     viewBox="0 0 576 512"
     fill="currentColor"
     stroke="currentColor"
     stroke-width="2"
     stroke-linecap="round"
     stroke-linejoin="round">
    <!--!Font Awesome Free 6.7.2 by @fontawesome - https://fontawesome.com License - https://fontawesome.com/license/free Copyright 2025 Fonticons, Inc.-->
    <path d="M572.5 241.4C518.3 135.6 410.9 64 288 64S57.7 135.6 3.5 241.4a32.4 32.4 0 0 0 0 29.2C57.7 376.4 165.1 448 288 448s230.3-71.6 284.5-177.4a32.4 32.4 0 0 0 0-29.2zM288 400a144 144 0 1 1 144-144 143.9 143.9 0 0 1 -144 144zm0-240a95.3 95.3 0 0 0 -25.3 3.8 47.9 47.9 0 0 1 -66.9 66.9A95.8 95.8 0 1 0 288 160z"/>
</svg>
