<svg
   width="512"
   height="512"
   viewBox="0 0 16 16"
   fill="currentColor"
   stroke="none"
   stroke-width="1"
   stroke-linecap="round"
   stroke-linejoin="round"
   xmlns="http://www.w3.org/2000/svg">
  <path
     d="m 10.42728,8.50752 c -0.5984,0 -1.13408,0.26496 -1.50144,0.68224 L 7.98504,8.52352 c 0.09984,-0.2752 0.15744,-0.57024 0.15744,-0.87936 0,-0.304 -0.05504,-0.59392 -0.15168,-0.86528 l 0.93888,-0.6592 c 0.36736,0.41536 0.90176,0.6784 1.49824,0.6784 1.104,0 2.00256,-0.89792 2.00256,-2.00256 0,-1.10464 -0.89856,-2.00256 -2.00256,-2.00256 -1.104,0 -2.00256,0.89792 -2.00256,2.00256 0,0.19776 0.03008,0.38848 0.0832,0.56896 L 7.56904,6.02368 C 7.17672,5.53792 6.6116,5.19744 5.96776,5.09376 V 3.9616 C 6.87464,3.77088 7.55816,2.96512 7.55816,2.00256 7.55816,0.89792 6.6596,0 5.5556,0 4.4516,0 3.55368,0.89792 3.55368,2.00256 c 0,0.94976 0.6656,1.74592 1.55456,1.95008 V 5.09952 C 3.89544,5.31264 2.97,6.3712 2.97,7.64416 c 0,1.27936 0.9344,2.34176 2.1568,2.54784 v 1.21088 C 4.22888,11.6 3.55432,12.40128 3.55432,13.35744 3.55368,14.46208 4.4516,15.36 5.5556,15.36 c 1.104,0 2.00256,-0.89792 2.00256,-2.00256 0,-0.9568 -0.67456,-1.75744 -1.57248,-1.95456 V 10.192 c 0.61824,-0.10432 1.1776,-0.42944 1.5744,-0.91584 l 0.9472,0.67072 c -0.05248,0.17856 -0.08192,0.36736 -0.08192,0.5632 0,1.104 0.89856,2.00256 2.00256,2.00256 1.104,0 2.00256,-0.89792 2.00256,-2.00256 0,-1.10464 -0.8992,-2.00256 -2.0032,-2.00256 z m 0,-4.68224 c 0.53568,0 0.97088,0.43584 0.97088,0.97088 0,0.53504 -0.4352,0.97088 -0.97088,0.97088 -0.53504,0 -0.97088,-0.43584 -0.97088,-0.97088 0,-0.53504 0.43584,-0.97088 0.97088,-0.97088 z M 4.58472,2.00256 c 0,-0.53504 0.4352,-0.97088 0.97088,-0.97088 0.53568,0 0.97088,0.43584 0.97088,0.97088 0,0.53504 -0.4352,0.97088 -0.97088,0.97088 -0.53568,0 -0.97088,-0.43584 -0.97088,-0.97088 z m 1.94176,11.35488 c 0,0.53504 -0.4352,0.97088 -0.97088,0.97088 -0.53568,0 -0.97088,-0.43584 -0.97088,-0.97088 0,-0.53504 0.4352,-0.97088 0.97088,-0.97088 0.53568,0 0.97088,0.43584 0.97088,0.97088 z M 5.5556,8.9984 c -0.74688,0 -1.35424,-0.60736 -1.35424,-1.35424 0,-0.74688 0.60736,-1.35424 1.35424,-1.35424 0.74688,0 1.35424,0.60736 1.35424,1.35424 0,0.74688 -0.60736,1.35424 -1.35424,1.35424 z m 4.87168,2.48256 c -0.53568,0 -0.97088,-0.43584 -0.97088,-0.97088 0,-0.53504 0.4352,-0.97088 0.97088,-0.97088 0.53568,0 0.97088,0.43584 0.97088,0.97088 0,0.53504 -0.4352,0.97088 -0.97088,0.97088 z"
     />
</svg>
