<svg xmlns="http://www.w3.org/2000/svg"
     width="24"
     height="24"
     viewBox="0 0 384 512"
     fill="currentColor"
     stroke="currentColor"
     stroke-width="2"
     stroke-linecap="round"
     stroke-linejoin="round">
    <!--!Font Awesome Free 6.7.2 by @fontawesome - https://fontawesome.com License - https://fontawesome.com/license/free Copyright 2025 Fonticons, Inc.-->
    <path d="M202 0C122.2 0 70.5 32.7 29.9 91c-7.4 10.6-5.1 25.1 5.2 32.9l43.1 32.7c10.4 7.9 25.1 6 33.3-4.1 25-31.4 43.6-49.4 82.8-49.4 30.8 0 68.8 19.8 68.8 49.6 0 22.6-18.6 34.1-49 51.2-35.4 19.9-82.3 44.6-82.3 106.4V320c0 13.3 10.7 24 24 24h72.5c13.3 0 24-10.7 24-24v-5.8c0-42.9 125.3-44.6 125.3-160.6C377.5 66.3 286.9 0 202 0zM192 373.5c-38.2 0-69.3 31.1-69.3 69.3 0 38.2 31.1 69.3 69.3 69.3s69.3-31.1 69.3-69.3-31.1-69.3-69.3-69.3z"/>
</svg>
