<svg xmlns="http://www.w3.org/2000/svg"
     width="24"
     height="24"
     viewBox="0 0 640 512"
     fill="currentColor"
     stroke="currentColor"
     stroke-width="2"
     stroke-linecap="round"
     stroke-linejoin="round">
    <!--!Font Awesome Free 6.7.2 by @fontawesome - https://fontawesome.com License - https://fontawesome.com/license/free Copyright 2025 Fonticons, Inc.-->
    <path d="M48 0C21.5 0 0 21.5 0 48v64c0 8.8 7.2 16 16 16h80V48C96 21.5 74.5 0 48 0zm208 412.6V352h288V96c0-52.9-43.1-96-96-96H111.6C121.7 13.4 128 29.9 128 48v368c0 38.9 34.7 69.7 74.8 63.1C234.2 474 256 444.5 256 412.6zM288 384v32c0 52.9-43.1 96-96 96h336c61.9 0 112-50.1 112-112 0-8.8-7.2-16-16-16H288z"/>
</svg>
