<svg xmlns="http://www.w3.org/2000/svg"
     width="24"
     height="24"
     viewBox="0 0 448 512"
     fill="currentColor"
     stroke="currentColor"
     stroke-width="2"
     stroke-linecap="round"
     stroke-linejoin="round">
    <!--!Font Awesome Free 6.7.2 by @fontawesome - https://fontawesome.com License - https://fontawesome.com/license/free Copyright 2025 Fonticons, Inc.-->
    <path d="M32 464a48 48 0 0 0 48 48h288a48 48 0 0 0 48-48V128H32zm272-256a16 16 0 0 1 32 0v224a16 16 0 0 1 -32 0zm-96 0a16 16 0 0 1 32 0v224a16 16 0 0 1 -32 0zm-96 0a16 16 0 0 1 32 0v224a16 16 0 0 1 -32 0zM432 32H312l-9.4-18.7A24 24 0 0 0 281.1 0H166.8a23.7 23.7 0 0 0 -21.4 13.3L136 32H16A16 16 0 0 0 0 48v32a16 16 0 0 0 16 16h416a16 16 0 0 0 16-16V48a16 16 0 0 0 -16-16z"/>
</svg>
